<svg viewBox="0 0 137 45" xmlns="http://www.w3.org/2000/svg"><path d="m16.66 2.84569c.0014-.00689.211.00275.211.00275l.5612 13.53996-.1889.0119c-.3921-1.5359-1.4473-13.44441-5.5653-13.44441-3.16426 0-4.2273 14.60161-4.2273 19.49371 0 6.3358.78177 19.6301 4.334 19.6301 1.7129 0 2.6426-2.9314 2.6426-6.7996v-12.3529h-1.9008v-.4858h7.6715v.4858h-1.9252v19.3578c-.0046-.0019-.2197.0059-.2211.0018-.2781-.8054-.318-2.4631-1.5663-2.4631-1.3843 0-2.8674 2.864-4.7908 2.858-6.36171-.0202-8.57741-11.7624-8.57741-20.2289 0-7.0131 2.56315-19.90788 8.57191-19.90788 1.0069 0 1.7152.2599 2.519 1.42118.5887.85132 1.7033 1.04556 2.1794-.04546.1439-.32878.2105-.75261.2725-1.07495z"/><path d="m102.96 41.5749v-38.02174h-1.702v-.46332h7.247v.46332h-1.71l.012 38.02174h1.698v.4702h-7.247v-.4702h1.702v-38.02174z"/><path d="m81.92 41.5732h4.5417c2.1302-.084 4.7389-2.0713 4.7389-7.6137 0-1.058.0129-2.1628.0129-3.2689l.4044.0018v11.3455l-13.7566.0083 9.3385-38.48971h-4.3551c-2.7548 0-4.2747 4.1648-4.2747 7.99581 0 .9817-.0294 2.8841-.0294 2.8841l-.3842.0046v-11.3492h13.3641z"/><path d="m30.2833 3.09375 8.1054.00276c3.8799 0 6.3962 4.30805 6.3962 9.48079 0 5.1552-2.1169 9.9592-5.3805 9.9592-.4361 0-.3961.2617 0 .2617 1.9556 0 3.424 2.2349 3.7204 2.8295 1.1959 2.4025.3723 13.461 1.5682 14.5529 1.0097.9225 1.751-.5188 1.8829-.7429l.1232.0895c-.0193.102-.8847 2.9535-3.0673 2.9535-1.814 0-2.7323-2.2266-2.9924-3.6211-.4247-2.2712-.2864-9.2186-.5175-10.6159-.2018-1.2178-.7501-4.8536-2.4616-5.1718-.7634-.1419-1.0038-.1419-1.8591-.1364-.0046 0 .0014 18.6337.0014 18.6337h1.7097v.4785h-7.4615v-.4785h1.916l-.0069-38.00662h-1.6766zm5.5165.46883v18.88762c.7892-.0046 2.0963.0849 3.4534-1.6641 1.2616-1.6255 1.7612-5.7228 1.7612-8.7768 0-3.25795-1.632-8.45545-3.7278-8.45545z"/><path d="m55.0183 41.5677 7.3296-39.02278 6.7744 39.02418 1.5405.0041v.4716l-7.0474-.0004v-.4785h1.5429l-1.9179-10.8831h-5.6139l-1.991 10.8927h1.9795v.4666h-4.2673v-.4624zm2.7143-11.3813h5.4384l-2.6206-15.2357z"/><path d="m117.317 41.5682 7.33-39.02328 6.775 39.02418 1.54.0046v.4711l-7.048-.0004v-.479h1.543l-1.918-10.8831h-5.614l-1.991 10.8928h1.98v.466h-4.268v-.4624zm2.714-11.3818h5.439l-2.62-15.2357z"/></svg>